<?xml version="1.0" encoding="UTF-8"?>
<svg id="Livello_1" data-name="Livello 1" xmlns="http://www.w3.org/2000/svg" width="131.382mm" height="166.983mm" viewBox="0 0 372.42 473.338">
  <defs>
    <style>
      .cls-1 {
        fill: #0d6b4d;
      }

      .cls-1, .cls-2, .cls-3, .cls-4 {
        stroke-width: 0px;
      }

      .cls-2 {
        fill: #c00;
      }

      .cls-3 {
        fill: #eaeaea;
      }

      .cls-4 {
        fill: #006432;
      }
    </style>
  </defs>
  <polyline class="cls-3" points="115.419 361.071 230.839 361.071 230.839 368.476 115.419 368.476 115.419 361.071"/>
  <polyline class="cls-3" points="115.419 433.441 230.839 433.441 230.839 440.847 115.419 440.847 115.419 433.441"/>
  <path class="cls-1" d="m130.554,1.417l42.875.21L46.387,72.695s-17.36,225.652,217.06,222.204c31.578-47.525,83.295-123.663,83.295-123.663l.092,34.562-83.515,128.316-109.715.356S29.923,307.949,1.399,171.573c-.222-81.868-.244-99.075-.244-99.075L130.554,1.417"/>
  <path class="cls-1" d="m273.008,1.017h-47.678s-96.609,56.5-122.697,71.752c0,105.575,76.318,165.666,160.457,165.666,16.274-20.754,83.343-106.141,83.343-106.141l-.217-44.375s-72.119,81.291-84.279,94.97c-42.104-4.833-101.854-33.774-98.938-111.85C191.692,52.777,271.588,1.964,273.008,1.017"/>
  <path class="cls-1" d="m346.282.798l-.021,41.605-83.076,81.836s-42.559-.42-45.127-52.884C251.311,46.826,313.923.811,313.923.811l32.359-.013"/>
  <path class="cls-1" d="m1.174,333.8l.21-64.991s8.413,45.487,62.894,65.2c-63.111-.177-62.894-.209-63.104-.209"/>
  <polyline class="cls-1" points="38.573 385.454 33.836 385.454 23.964 415.63 23.867 415.63 14.099 385.454 9.167 385.454 21.232 419.462 26.411 419.462 38.573 385.454"/>
  <polyline class="cls-1" points="44.658 419.462 68.182 419.462 68.182 415.63 48.969 415.63 48.969 403.656 66.745 403.656 66.745 399.824 48.969 399.824 48.969 389.286 68.032 389.286 68.032 385.454 44.658 385.454 44.658 419.462"/>
  <path class="cls-1" d="m76.272,419.462h4.311v-14.848h11.159c1.093,0,1.984.17,2.672.512.689.342,1.241.796,1.658,1.362.417.567.721,1.232.913,1.995s.353,1.567.483,2.41c.16,1.202.256,2.25.288,3.143.032.893.072,1.681.12,2.362.047.681.12,1.264.217,1.751.097.486.305.924.625,1.313h5.097c-.479-.573-.839-1.233-1.078-1.979-.24-.746-.415-1.523-.528-2.332-.112-.808-.192-1.649-.239-2.522-.048-.873-.104-1.724-.169-2.552-.099-.823-.229-1.617-.389-2.38s-.431-1.454-.816-2.073c-.384-.619-.889-1.15-1.515-1.594-.626-.444-1.436-.761-2.429-.951v-.097c2.086-.574,3.601-1.638,4.547-3.192.945-1.554,1.418-3.364,1.418-5.43,0-2.729-.92-4.896-2.762-6.5-1.841-1.604-4.365-2.406-7.574-2.406h-16.009v34.008m4.311-18.68v-11.496h11.526c2.181,0,3.758.531,4.734,1.594.975,1.063,1.463,2.41,1.463,4.041,0,1.198-.219,2.173-.658,2.927-.44.753-1.026,1.353-1.759,1.8-.734.446-1.588.747-2.564.902-.975.154-1.999.232-3.072.232h-9.67Z"/>
  <path class="cls-1" d="m114.113,401.979c0-1.671.226-3.319.678-4.943.451-1.624,1.162-3.088,2.133-4.39.97-1.302,2.215-2.348,3.734-3.136,1.52-.788,3.33-1.182,5.43-1.182s3.911.394,5.43,1.182c1.519.788,2.764,1.834,3.735,3.136.97,1.302,1.681,2.766,2.133,4.39.451,1.624.677,3.272.677,4.943s-.226,3.319-.677,4.943c-.452,1.625-1.163,3.088-2.133,4.39-.971,1.302-2.216,2.348-3.735,3.136-1.519.788-3.329,1.182-5.43,1.182s-3.91-.394-5.43-1.182c-1.519-.788-2.764-1.834-3.734-3.136-.971-1.302-1.682-2.765-2.133-4.39-.452-1.624-.678-3.271-.678-4.943m-4.311,0c0,2.275.342,4.464,1.026,6.568.683,2.103,1.707,3.965,3.072,5.587,1.365,1.621,3.062,2.915,5.093,3.88,2.031.966,4.396,1.448,7.095,1.448s5.065-.482,7.095-1.448c2.031-.965,3.729-2.259,5.093-3.88,1.365-1.622,2.389-3.484,3.073-5.587.683-2.104,1.025-4.293,1.025-6.568s-.342-4.464-1.025-6.567c-.684-2.104-1.708-3.966-3.073-5.588-1.364-1.621-3.062-2.915-5.093-3.88-2.03-.966-4.395-1.448-7.095-1.448s-5.064.482-7.095,1.448c-2.031.965-3.728,2.259-5.093,3.88-1.365,1.622-2.389,3.484-3.072,5.588-.684,2.103-1.026,4.292-1.026,6.567Z"/>
  <polyline class="cls-1" points="165.845 419.462 190.184 419.462 190.184 413.714 173.509 413.714 173.509 385.454 165.845 385.454 165.845 419.462"/>
  <polyline class="cls-1" points="196.501 419.462 222.607 419.462 222.607 413.714 204.165 413.714 204.165 404.614 220.743 404.614 220.743 398.866 204.165 398.866 204.165 391.202 222.225 391.202 222.225 385.454 196.501 385.454 196.501 419.462"/>
  <path class="cls-1" d="m255.441,419.462h4.767v-18.68h-14.28v5.748h7.574c-.219,2.335-1.009,4.116-2.369,5.343-1.359,1.228-3.254,1.841-5.684,1.841-1.676,0-3.098-.331-4.266-.995s-2.114-1.544-2.84-2.642c-.726-1.098-1.255-2.334-1.587-3.708-.332-1.375-.498-2.791-.498-4.248,0-1.517.167-2.986.502-4.408.334-1.422.869-2.691,1.605-3.806.736-1.115,1.694-2.004,2.874-2.668,1.18-.664,2.618-.995,4.315-.995,1.786,0,3.325.479,4.618,1.437,1.292.958,2.163,2.395,2.612,4.311h7.185c-.19-1.946-.724-3.645-1.602-5.097-.878-1.452-1.972-2.642-3.282-3.57-1.31-.928-2.786-1.632-4.431-2.111-1.644-.479-3.344-.718-5.1-.718-2.655,0-5.022.451-7.103,1.354-2.08.903-3.853,2.15-5.317,3.739-1.465,1.589-2.587,3.459-3.368,5.609-.781,2.151-1.172,4.458-1.172,6.923,0,2.4.382,4.659,1.145,6.777.764,2.118,1.86,3.957,3.29,5.516,1.429,1.56,3.177,2.791,5.243,3.694,2.065.903,4.418,1.354,7.057,1.354,1.657,0,3.295-.215,4.914-.647,1.619-.432,3.097-1.508,4.434-3.229l.764,3.876"/>
  <polyline class="cls-1" points="268.83 419.462 275.536 419.462 275.536 396.568 275.634 396.568 289.981 419.462 297.57 419.462 297.57 385.454 290.864 385.454 290.864 408.401 290.767 408.401 276.367 385.454 268.83 385.454 268.83 419.462"/>
  <path class="cls-1" d="m312.898,402.121c0-1.517.165-2.986.494-4.408.33-1.422.853-2.691,1.572-3.806.718-1.115,1.657-2.004,2.814-2.668,1.158-.664,2.565-.995,4.221-.995s3.064.331,4.221.995c1.158.664,2.096,1.553,2.815,2.668.718,1.115,1.242,2.384,1.571,3.806.33,1.422.494,2.891.494,4.408,0,1.457-.164,2.873-.494,4.248-.329,1.374-.853,2.61-1.571,3.708-.719,1.098-1.657,1.978-2.815,2.642-1.157.664-2.564.995-4.221.995s-3.063-.331-4.221-.995c-1.157-.664-2.096-1.544-2.814-2.642-.719-1.098-1.242-2.334-1.572-3.708-.329-1.375-.494-2.791-.494-4.248m-7.664,0c0,2.4.382,4.659,1.145,6.777.764,2.118,1.863,3.957,3.297,5.516,1.435,1.56,3.186,2.791,5.254,3.694s4.425,1.354,7.069,1.354,5.001-.451,7.069-1.354,3.82-2.134,5.254-3.694c1.435-1.559,2.534-3.398,3.297-5.516.764-2.118,1.145-4.377,1.145-6.777,0-2.465-.381-4.772-1.145-6.923-.763-2.15-1.862-4.02-3.297-5.609-1.434-1.589-3.186-2.836-5.254-3.739-2.068-.903-4.424-1.354-7.069-1.354s-5.001.451-7.069,1.354c-2.068.903-3.819,2.15-5.254,3.739-1.434,1.589-2.533,3.459-3.297,5.609-.763,2.151-1.145,4.458-1.145,6.923Z"/>
  <polyline class="cls-4" points="0 361.071 115.419 361.071 115.419 368.476 0 368.476 0 361.071"/>
  <polyline class="cls-2" points="230.837 361.071 346.256 361.071 346.256 368.476 230.837 368.476 230.837 361.071"/>
  <polyline class="cls-4" points="0 433.441 115.419 433.441 115.419 440.846 0 440.846 0 433.441"/>
  <polyline class="cls-2" points="230.837 433.441 346.256 433.441 346.256 440.846 230.837 440.846 230.837 433.441"/>
  <polyline class="cls-1" points="3.654 473.338 4.844 473.338 4.844 453.697 4.905 453.697 13.159 473.338 14.479 473.338 22.64 453.697 22.7 453.697 22.7 473.338 23.89 473.338 23.89 452.209 22.026 452.209 13.847 472.445 13.786 472.445 5.519 452.209 3.654 452.209 3.654 473.338"/>
  <path class="cls-1" d="m42.044,465.601l4.733-12.499h.056l4.557,12.499h-9.346m4.017-13.392l-8.542,21.129h1.4l2.706-6.845h10.179l2.678,6.845h1.4l-8.393-21.129h-1.428Z"/>
  <path class="cls-1" d="m69.125,473.338h6.854c1.695,0,3.159-.271,4.389-.814,1.231-.542,2.25-1.287,3.058-2.234.807-.947,1.403-2.067,1.787-3.36.385-1.292.577-2.687.577-4.184,0-1.343-.153-2.645-.458-3.909-.305-1.263-.832-2.387-1.581-3.373-.749-.986-1.748-1.775-2.999-2.367-1.251-.592-2.822-.888-4.713-.888h-6.914v21.129m1.19-20.236h5.492c.52,0,1.106.035,1.755.107.649.071,1.3.217,1.951.439s1.281.539,1.892.953c.611.414,1.151.98,1.621,1.697.469.718.849,1.602,1.139,2.653.29,1.051.435,2.314.435,3.79,0,1.882-.255,3.444-.765,4.687-.51,1.243-1.175,2.233-1.995,2.971-.82.738-1.735,1.264-2.746,1.577-1.01.313-2.016.469-3.018.469h-5.761v-19.343Z"/>
  <polyline class="cls-1" points="102.158 472.445 102.158 462.625 114.359 462.625 114.359 461.732 102.158 461.732 102.158 453.102 115.131 453.102 115.131 452.209 100.967 452.209 100.967 473.338 115.28 473.338 115.28 472.445 102.158 472.445"/>
  <polyline class="cls-1" points="149.773 473.338 150.963 473.338 150.963 452.209 149.773 452.209 149.773 473.338"/>
  <polyline class="cls-1" points="166.736 473.338 167.926 473.338 167.926 453.697 167.986 453.697 181.55 473.338 183.103 473.338 183.103 452.209 181.913 452.209 181.913 471.552 181.852 471.552 168.377 452.209 166.736 452.209 166.736 473.338"/>
  <polyline class="cls-1" points="219.707 473.338 222.386 473.338 222.386 452.209 219.707 452.209 219.707 473.338"/>
  <polyline class="cls-1" points="244.11 473.338 246.788 473.338 246.788 454.59 253.87 454.59 253.87 452.209 237.028 452.209 237.028 454.59 244.11 454.59 244.11 473.338"/>
  <path class="cls-1" d="m275.418,454.59h.06l3.539,9.82h-7.203l3.604-9.82m-9.793,18.748h2.916l2.38-6.547h8.989l2.32,6.547h3.125l-8.3-21.129h-3.125l-8.305,21.129Z"/>
  <polyline class="cls-1" points="299.463 473.338 313.389 473.338 313.389 470.957 302.141 470.957 302.141 452.209 299.463 452.209 299.463 473.338"/>
  <polyline class="cls-1" points="344.785 452.209 341.572 452.209 335.42 462.327 329.134 452.209 325.772 452.209 333.983 464.698 333.983 473.338 336.662 473.338 336.662 464.698 344.785 452.209"/>
  <path class="cls-1" d="m360.729,5.084h2.462c.62,0,1.211.094,1.775.282.564.188.846.66.846,1.417,0,.895-.319,1.429-.957,1.601-.638.172-1.375.258-2.212.258h-1.914v-3.558m-1.525,9.864h1.525v-4.781h1.874l3.066,4.781h1.922l-3.272-4.94c.868-.069,1.588-.351,2.16-.846s.858-1.253.858-2.275c0-2.219-1.297-3.328-3.892-3.328h-4.241v11.389Zm-4.575-5.568c0-1.122.212-2.16.635-3.113.424-.953.996-1.784,1.716-2.494.72-.709,1.582-1.261,2.585-1.656,1.004-.394,2.088-.592,3.253-.592,1.122,0,2.177.198,3.165.592.987.395,1.841.947,2.561,1.656.72.71,1.292,1.541,1.716,2.494.423.953.635,1.991.635,3.113s-.212,2.162-.635,3.134c-.424.972-.996,1.812-1.716,2.522-.72.709-1.574,1.261-2.561,1.656-.988.394-2.043.591-3.165.591-1.165,0-2.249-.197-3.253-.591-1.003-.395-1.865-.947-2.585-1.656-.72-.71-1.292-1.55-1.716-2.522-.423-.972-.635-2.016-.635-3.134Zm-1.525-.023c0,1.339.257,2.588.77,3.745.514,1.157,1.216,2.153,2.105,2.99.89.837,1.917,1.499,3.082,1.986s2.414.73,3.749.73c1.302,0,2.536-.243,3.701-.73,1.165-.487,2.184-1.149,3.058-1.986.874-.837,1.567-1.833,2.081-2.99.513-1.157.77-2.406.77-3.745s-.257-2.587-.77-3.725c-.514-1.139-1.207-2.128-2.081-2.967-.874-.839-1.893-1.493-3.058-1.962-1.165-.468-2.399-.703-3.701-.703-1.335,0-2.584.235-3.749.703-1.165.469-2.192,1.123-3.082,1.962-.889.839-1.591,1.828-2.105,2.967-.513,1.138-.77,2.38-.77,3.725Z"/>
</svg>