<svg xmlns="http://www.w3.org/2000/svg" shape-rendering="geometricPrecision" text-rendering="geometricPrecision" image-rendering="optimizeQuality" fill-rule="evenodd" clip-rule="evenodd" viewBox="0 0 423 511.96"><path fill="#4D4D4D" fill-rule="nonzero" d="M211.5 0c58.4 0 111.28 23.68 149.55 61.95C399.32 100.22 423 153.1 423 211.5c0 58.4-23.68 111.28-61.95 149.55C322.78 399.32 269.9 423 211.5 423c-58.39 0-111.28-23.68-149.55-61.95C23.68 322.78 0 269.89 0 211.5c0-58.4 23.68-111.28 61.95-149.55C100.22 23.68 153.1 0 211.5 0z"/><path fill="#fff" fill-rule="nonzero" d="M211.5 16.18c53.94 0 102.78 21.87 138.11 57.21 35.34 35.33 57.21 84.18 57.21 138.11 0 53.93-21.88 102.77-57.22 138.11l-.98.9c-35.29 34.81-83.73 56.31-137.12 56.31-53.91 0-102.77-21.87-138.1-57.21-35.34-35.34-57.22-84.2-57.22-138.11 0-53.87 21.89-102.71 57.25-138.06 35.3-35.38 84.14-57.26 138.07-57.26z"/><path fill="#009246" fill-rule="nonzero" d="M121.71 366.13V56.86C68.49 87.83 32.7 145.49 32.7 211.5c0 66 35.79 123.65 89.01 154.63z"/><path fill="#fff" fill-rule="nonzero" d="M205.91 390.2h11.2c30.62-.94 59.33-9.6 84.2-24.08V56.88c-26.39-15.38-57.07-24.17-89.81-24.17-32.73 0-63.4 8.79-89.79 24.15v309.27c24.87 14.47 53.57 23.13 84.2 24.07z"/><path fill="#CE2B37" fill-rule="nonzero" d="M301.31 56.88v309.24c53.21-30.97 88.98-88.62 88.98-154.62 0-66.01-35.77-123.66-88.98-154.62z"/><path fill="#4D4D4D" fill-rule="nonzero" d="M90.93 325.03h241.14c14.71 0 24.95 11.89 26.91 26.91l20.47 133.11c0 14.71-12.2 26.91-26.92 26.91H70.47c-14.76 0-26.9-12.15-26.9-26.91l20.46-133.11c3.36-15.67 12.86-26.91 26.9-26.91z"/><path fill="#fff" d="M89.03 335.92h244.93c7.77 0 13 6.59 14.13 14.13l20.46 136.9c1.13 7.55-6.49 14.12-14.12 14.12H68.58c-7.63 0-15.28-6.43-14.13-14.12l20.46-136.9c1.15-7.69 6.35-14.13 14.12-14.13z"/><path fill="#333" fill-rule="nonzero" d="M128.27 400.34h-9.32V362h11.41l6.22 20.49 6.2-20.49h11.42v38.34h-9.26v-24.37l-4.78 16.07h-7.17l-4.72-15.95v24.25zm50.24 0-1.21-5.73h-9.19l-1.26 5.73h-10.27l9.85-38.34h12.73l9.85 38.34h-10.5zm-8.78-13.14h5.97l-2.94-13.79-3.03 13.79zM192 362h17.62c5.86 0 8.78 2.46 8.78 7.4v23.54c0 4.93-2.92 7.4-8.78 7.4H192V362zm15.95 30.15v-21.98c0-.87-.5-1.31-1.5-1.31h-4v24.62h4c1 0 1.5-.45 1.5-1.33zm25.51.72h13.08v7.47h-23.53V362h23v7.45h-12.55v7.84h10.81v7.46h-10.81v8.12zM261.77 362h10.46v38.34h-10.46V362zm32.72 0h9.57v38.34h-8.96l-8.55-20.13v20.13H277V362h8.96l8.53 20.49V362z"/><path fill="#009246" fill-rule="nonzero" d="M121.05 421.3h14.64v53.71h-14.64V421.3zm54.53 0v10.46H165.2v43.25h-14.64v-43.25h-10.28V421.3h35.3zm31.96 53.71-1.67-8.03h-12.89l-1.75 8.03h-14.4l13.81-53.71h17.82l13.8 53.71h-14.72zm-12.3-18.41h8.36l-4.09-19.32-4.27 19.32zm45.85 7.96h16.64v10.45h-31.28V421.3h14.64v43.26zm46.93 10.45h-14.64v-17.4l-14.81-36.31h14.98l7.02 22.68 6.52-22.68h14.89l-13.96 36.14v17.57z"/></svg>